HIERARCHY
ROOT pelvis
{
  OFFSET 0 100 0
  CHANNELS 6 Xposition Yposition Zposition Zrotation Xrotation Yrotation
  JOINT pelvis_right_femur
  {
    OFFSET -10.78128 -3.44521 -0.5502486
    CHANNELS 3 Zrotation Xrotation Yrotation
    JOINT right_femur_tibia
    {
      OFFSET -0.8047443 -44.0398 -0.1307829
      CHANNELS 3 Zrotation Xrotation Yrotation
      JOINT right_tibia_foot
      {
        OFFSET 3.006224 -47.83518 -5
        CHANNELS 3 Zrotation Xrotation Yrotation
        End Site
        {
          OFFSET 0 -5 15
        }
      }
    }
  }
  JOINT pelvis_left_femur
  {
    OFFSET 10.78128 -3.44521 -0.5502486
    CHANNELS 3 Zrotation Xrotation Yrotation
    JOINT left_femur_tibia
    {
      OFFSET 0.8047443 -44.0398 -0.1307829
      CHANNELS 3 Zrotation Xrotation Yrotation
      JOINT left_tibia_foot
      {
        OFFSET -4.370144 -48.10324 -4.275266
        CHANNELS 3 Zrotation Xrotation Yrotation
        End Site
        {
          OFFSET 0 -5 15
        }
      }
    }
  }
  JOINT pelvis_spine1
  {
    OFFSET 0 6.468898 -3.129235
    CHANNELS 3 Zrotation Xrotation Yrotation
    JOINT spine1
    {
      OFFSET 0 23.15396 4.99043
      CHANNELS 3 Zrotation Xrotation Yrotation
      JOINT spine2
      {
        OFFSET 0 20.79997 -5.064912
        CHANNELS 3 Zrotation Xrotation Yrotation
        JOINT neck
        {
          OFFSET 0 14.38658 9.616178
          CHANNELS 3 Zrotation Xrotation Yrotation
          End Site
          {
            OFFSET 0 20 0
          }
        }
      }
      JOINT right_manubrium
      {
        OFFSET -5.722621 16.35077 3.967754
        CHANNELS 3 Zrotation Xrotation Yrotation
        JOINT right_clavicle
        {
          OFFSET -13.16364 1.694482 -4.693211
          CHANNELS 3 Zrotation Xrotation Yrotation
          JOINT right_humerus
          {
            OFFSET -28.5034 -0.3100689 -2.792744
            CHANNELS 3 Zrotation Xrotation Yrotation
            JOINT right_radius
            {
              OFFSET -25.15693 0.02248979 -1.271978
              CHANNELS 3 Zrotation Xrotation Yrotation
              End Site
              {
                OFFSET -15 0 0
              }
            }
          }
        }
      }
      JOINT left_manubrium
      {
        OFFSET 5.722621 16.35077 3.967754
        CHANNELS 3 Zrotation Xrotation Yrotation
        JOINT left_clavicle
        {
          OFFSET 13.16364 1.694482 -4.693211
          CHANNELS 3 Zrotation Xrotation Yrotation
          JOINT left_humerus
          {
            OFFSET 29.39168 -1.063119 -2.237045
            CHANNELS 3 Zrotation Xrotation Yrotation
            JOINT left_radius
            {
              OFFSET 24.59957 -0.9528479 0.9047498
              CHANNELS 3 Zrotation Xrotation Yrotation
              End Site
              {
                OFFSET 15 -0 -0
              }
            }
          }
        }
      }
    }
  }
}
MOTION
Frames: 19
Frame Time: 0.0416666666667
-581.8363 108.0384 3429.143 -1.918569 -9.363254 -25.14548 6.306571 -2.161006 -6.51447 -0 2.315628 -0 -11.59491 3.239061 -0.3543796 -0.3533623 -6.271043 6.26915 -0 25.74454 -0 2.641353 -4.809153 2.686327 1.175734 -7.646515 10.36557 1.49534 21.61419 -11.5987 -2.84473 16.45359 1.149067 2.646025 -17.0323 -4.882057 -5.161028 -35.1983 14.94373 97.6463 0.04338624 -25.24123 -0 0 24.61075 -23.22999 6.777823 12.84264 0.6943068 -35.77797 -16.31148 -85.87218 9.157787 33.66778 0 0 -43.09841 -0.1459145 6.23343 16.23118
-584.0774 108.0293 3435.882 -1.924311 -9.362086 -25.18078 6.306571 -2.161006 -6.51447 -0 2.315628 -0 -11.59491 3.239061 -0.3543796 -0.3533623 -6.271043 6.26915 -0 25.74454 -0 2.641353 -4.809153 2.686327 1.175734 -7.646515 10.36557 1.49534 21.61419 -11.5987 -2.84473 16.45359 1.149067 2.646025 -17.0323 -4.882057 -5.161028 -35.1983 14.94373 97.6463 0.04338624 -25.24123 -0 0 24.61075 -23.22999 6.777823 12.84264 0.6943068 -35.77797 -16.31148 -85.87218 9.157787 33.66778 0 0 -43.09841 -0.1459145 6.23343 16.23118
-586.3226 108.0202 3442.62 -1.930053 -9.360914 -25.21608 6.306571 -2.161006 -6.51447 -0 2.315628 -0 -11.59491 3.239061 -0.3543796 -0.3533623 -6.271043 6.26915 -0 25.74454 -0 2.641353 -4.809153 2.686327 1.175734 -7.646515 10.36557 1.49534 21.61419 -11.5987 -2.84473 16.45359 1.149067 2.646025 -17.0323 -4.882057 -5.161028 -35.1983 14.94373 97.6463 0.04338624 -25.24123 -0 0 24.61075 -23.22999 6.777823 12.84264 0.6943068 -35.77797 -16.31148 -85.87218 9.157787 33.66778 0 0 -43.09841 -0.1459145 6.23343 16.23118
-588.5718 108.0111 3449.357 -1.935794 -9.359739 -25.25138 6.306571 -2.161006 -6.51447 -0 2.315628 -0 -11.59491 3.239061 -0.3543796 -0.3533623 -6.271043 6.26915 -0 25.74454 -0 2.641353 -4.809153 2.686327 1.175734 -7.646515 10.36557 1.49534 21.61419 -11.5987 -2.84473 16.45359 1.149067 2.646025 -17.0323 -4.882057 -5.161028 -35.1983 14.94373 97.6463 0.04338624 -25.24123 -0 0 24.61075 -23.22999 6.777823 12.84264 0.6943068 -35.77797 -16.31148 -85.87218 9.157787 33.66778 0 0 -43.09841 -0.1459145 6.23343 16.23118
-590.8252 108.0021 3456.092 -1.941535 -9.35856 -25.28668 6.306571 -2.161006 -6.51447 -0 2.315628 -0 -11.59491 3.239061 -0.3543796 -0.3533623 -6.271043 6.26915 -0 25.74454 -0 2.641353 -4.809153 2.686327 1.175734 -7.646515 10.36557 1.49534 21.61419 -11.5987 -2.84473 16.45359 1.149067 2.646025 -17.0323 -4.882057 -5.161028 -35.1983 14.94373 97.6463 0.04338624 -25.24123 -0 0 24.61075 -23.22999 6.777823 12.84264 0.6943068 -35.77797 -16.31148 -85.87218 9.157787 33.66778 0 0 -43.09841 -0.1459145 6.23343 16.23118
-593.0827 107.993 3462.826 -1.947274 -9.357377 -25.32198 6.306571 -2.161006 -6.51447 -0 2.315628 -0 -11.59491 3.239061 -0.3543796 -0.3533623 -6.271043 6.26915 -0 25.74454 -0 2.641353 -4.809153 2.686327 1.175734 -7.646515 10.36557 1.49534 21.61419 -11.5987 -2.84473 16.45359 1.149067 2.646025 -17.0323 -4.882057 -5.161028 -35.1983 14.94373 97.6463 0.04338624 -25.24123 -0 0 24.61075 -23.22999 6.777823 12.84264 0.6943068 -35.77797 -16.31148 -85.87218 9.157787 33.66778 0 0 -43.09841 -0.1459145 6.23343 16.23118
-595.3443 107.9839 3469.559 -1.953013 -9.356191 -25.35727 6.306571 -2.161006 -6.51447 -0 2.315628 -0 -11.59491 3.239061 -0.3543796 -0.3533623 -6.271043 6.26915 -0 25.74454 -0 2.641353 -4.809153 2.686327 1.175734 -7.646515 10.36557 1.49534 21.61419 -11.5987 -2.84473 16.45359 1.149067 2.646025 -17.0323 -4.882057 -5.161028 -35.1983 14.94373 97.6463 0.04338624 -25.24123 -0 0 24.61075 -23.22999 6.777823 12.84264 0.6943068 -35.77797 -16.31148 -85.87218 9.157787 33.66778 0 0 -43.09841 -0.1459145 6.23343 16.23118
-597.6099 107.9749 3476.29 -1.958751 -9.355002 -25.39257 6.306571 -2.161006 -6.51447 -0 2.315628 -0 -11.59491 3.239061 -0.3543796 -0.3533623 -6.271043 6.26915 -0 25.74454 -0 2.641353 -4.809153 2.686327 1.175734 -7.646515 10.36557 1.49534 21.61419 -11.5987 -2.84473 16.45359 1.149067 2.646025 -17.0323 -4.882057 -5.161028 -35.1983 14.94373 97.6463 0.04338624 -25.24123 -0 0 24.61075 -23.22999 6.777823 12.84264 0.6943068 -35.77797 -16.31148 -85.87218 9.157787 33.66778 0 0 -43.09841 -0.1459145 6.23343 16.23118
-599.8797 107.9658 3483.02 -1.964488 -9.353809 -25.42787 6.306571 -2.161006 -6.51447 -0 2.315628 -0 -11.59491 3.239061 -0.3543796 -0.3533623 -6.271043 6.26915 -0 25.74454 -0 2.641353 -4.809153 2.686327 1.175734 -7.646515 10.36557 1.49534 21.61419 -11.5987 -2.84473 16.45359 1.149067 2.646025 -17.0323 -4.882057 -5.161028 -35.1983 14.94373 97.6463 0.04338624 -25.24123 -0 0 24.61075 -23.22999 6.777823 12.84264 0.6943068 -35.77797 -16.31148 -85.87218 9.157787 33.66778 0 0 -43.09841 -0.1459145 6.23343 16.23118
-602.1535 107.9567 3489.748 -1.970225 -9.352613 -25.46317 6.306571 -2.161006 -6.51447 -0 2.315628 -0 -11.59491 3.239061 -0.3543796 -0.3533623 -6.271043 6.26915 -0 25.74454 -0 2.641353 -4.809153 2.686327 1.175734 -7.646515 10.36557 1.49534 21.61419 -11.5987 -2.84473 16.45359 1.149067 2.646025 -17.0323 -4.882057 -5.161028 -35.1983 14.94373 97.6463 0.04338624 -25.24123 -0 0 24.61075 -23.22999 6.777823 12.84264 0.6943068 -35.77797 -16.31148 -85.87218 9.157787 33.66778 0 0 -43.09841 -0.1459145 6.23343 16.23118
-604.4315 107.9476 3496.475 -1.975961 -9.351413 -25.49846 6.306571 -2.161006 -6.51447 -0 2.315628 -0 -11.59491 3.239061 -0.3543796 -0.3533623 -6.271043 6.26915 -0 25.74454 -0 2.641353 -4.809153 2.686327 1.175734 -7.646515 10.36557 1.49534 21.61419 -11.5987 -2.84473 16.45359 1.149067 2.646025 -17.0323 -4.882057 -5.161028 -35.1983 14.94373 97.6463 0.04338624 -25.24123 -0 0 24.61075 -23.22999 6.777823 12.84264 0.6943068 -35.77797 -16.31148 -85.87218 9.157787 33.66778 0 0 -43.09841 -0.1459145 6.23343 16.23118
-606.7135 107.9386 3503.201 -1.981696 -9.35021 -25.53376 6.306571 -2.161006 -6.51447 -0 2.315628 -0 -11.59491 3.239061 -0.3543796 -0.3533623 -6.271043 6.26915 -0 25.74454 -0 2.641353 -4.809153 2.686327 1.175734 -7.646515 10.36557 1.49534 21.61419 -11.5987 -2.84473 16.45359 1.149067 2.646025 -17.0323 -4.882057 -5.161028 -35.1983 14.94373 97.6463 0.04338624 -25.24123 -0 0 24.61075 -23.22999 6.777823 12.84264 0.6943068 -35.77797 -16.31148 -85.87218 9.157787 33.66778 0 0 -43.09841 -0.1459145 6.23343 16.23118
-608.9996 107.9295 3509.925 -1.98743 -9.349003 -25.56906 6.306571 -2.161006 -6.51447 -0 2.315628 -0 -11.59491 3.239061 -0.3543796 -0.3533623 -6.271043 6.26915 -0 25.74454 -0 2.641353 -4.809153 2.686327 1.175734 -7.646515 10.36557 1.49534 21.61419 -11.5987 -2.84473 16.45359 1.149067 2.646025 -17.0323 -4.882057 -5.161028 -35.1983 14.94373 97.6463 0.04338624 -25.24123 -0 0 24.61075 -23.22999 6.777823 12.84264 0.6943068 -35.77797 -16.31148 -85.87218 9.157787 33.66778 0 0 -43.09841 -0.1459145 6.23343 16.23118
-611.2898 107.9204 3516.648 -1.993163 -9.347792 -25.60435 6.306571 -2.161006 -6.51447 -0 2.315628 -0 -11.59491 3.239061 -0.3543796 -0.3533623 -6.271043 6.26915 -0 25.74454 -0 2.641353 -4.809153 2.686327 1.175734 -7.646515 10.36557 1.49534 21.61419 -11.5987 -2.84473 16.45359 1.149067 2.646025 -17.0323 -4.882057 -5.161028 -35.1983 14.94373 97.6463 0.04338624 -25.24123 -0 0 24.61075 -23.22999 6.777823 12.84264 0.6943068 -35.77797 -16.31148 -85.87218 9.157787 33.66778 0 0 -43.09841 -0.1459145 6.23343 16.23118
-613.5841 107.9114 3523.369 -1.998896 -9.346579 -25.63965 6.306571 -2.161006 -6.51447 -0 2.315628 -0 -11.59491 3.239061 -0.3543796 -0.3533623 -6.271043 6.26915 -0 25.74454 -0 2.641353 -4.809153 2.686327 1.175734 -7.646515 10.36557 1.49534 21.61419 -11.5987 -2.84473 16.45359 1.149067 2.646025 -17.0323 -4.882057 -5.161028 -35.1983 14.94373 97.6463 0.04338624 -25.24123 -0 0 24.61075 -23.22999 6.777823 12.84264 0.6943068 -35.77797 -16.31148 -85.87218 9.157787 33.66778 0 0 -43.09841 -0.1459145 6.23343 16.23118
-615.8825 107.9023 3530.09 -2.004628 -9.345361 -25.67495 6.306571 -2.161006 -6.51447 -0 2.315628 -0 -11.59491 3.239061 -0.3543796 -0.3533623 -6.271043 6.26915 -0 25.74454 -0 2.641353 -4.809153 2.686327 1.175734 -7.646515 10.36557 1.49534 21.61419 -11.5987 -2.84473 16.45359 1.149067 2.646025 -17.0323 -4.882057 -5.161028 -35.1983 14.94373 97.6463 0.04338624 -25.24123 -0 0 24.61075 -23.22999 6.777823 12.84264 0.6943068 -35.77797 -16.31148 -85.87218 9.157787 33.66778 0 0 -43.09841 -0.1459145 6.23343 16.23118
-618.185 107.8932 3536.808 -2.010359 -9.344141 -25.71024 6.306571 -2.161006 -6.51447 -0 2.315628 -0 -11.59491 3.239061 -0.3543796 -0.3533623 -6.271043 6.26915 -0 25.74454 -0 2.641353 -4.809153 2.686327 1.175734 -7.646515 10.36557 1.49534 21.61419 -11.5987 -2.84473 16.45359 1.149067 2.646025 -17.0323 -4.882057 -5.161028 -35.1983 14.94373 97.6463 0.04338624 -25.24123 -0 0 24.61075 -23.22999 6.777823 12.84264 0.6943068 -35.77797 -16.31148 -85.87218 9.157787 33.66778 0 0 -43.09841 -0.1459145 6.23343 16.23118
-620.4916 107.8841 3543.526 -2.016089 -9.342916 -25.74554 6.306571 -2.161006 -6.51447 -0 2.315628 -0 -11.59491 3.239061 -0.3543796 -0.3533623 -6.271043 6.26915 -0 25.74454 -0 2.641353 -4.809153 2.686327 1.175734 -7.646515 10.36557 1.49534 21.61419 -11.5987 -2.84473 16.45359 1.149067 2.646025 -17.0323 -4.882057 -5.161028 -35.1983 14.94373 97.6463 0.04338624 -25.24123 -0 0 24.61075 -23.22999 6.777823 12.84264 0.6943068 -35.77797 -16.31148 -85.87218 9.157787 33.66778 0 0 -43.09841 -0.1459145 6.23343 16.23118
-622.8022 107.8751 3550.241 -2.021819 -9.341689 -25.78083 6.306571 -2.161006 -6.51447 -0 2.315628 -0 -11.59491 3.239061 -0.3543796 -0.3533623 -6.271043 6.26915 -0 25.74454 -0 2.641353 -4.809153 2.686327 1.175734 -7.646515 10.36557 1.49534 21.61419 -11.5987 -2.84473 16.45359 1.149067 2.646025 -17.0323 -4.882057 -5.161028 -35.1983 14.94373 97.6463 0.04338624 -25.24123 -0 0 24.61075 -23.22999 6.777823 12.84264 0.6943068 -35.77797 -16.31148 -85.87218 9.157787 33.66778 0 0 -43.09841 -0.1459145 6.23343 16.23118
